# Blender v2.93.4 OBJ File: 'PA4.blend'
# www.blender.org
mtllib PA4.mtl
o Trapezoid_Planes
v -0.001934 1.000000 1.407341
v -0.001935 -1.000000 4.235768
v 1.412279 1.000000 -0.006872
v 4.240706 -1.000000 -0.006871
v -1.416148 1.000000 -0.006873
v -0.001935 -0.000000 2.821555
v -0.001934 0.000000 -2.835299
v -4.244575 -1.000000 -0.006874
v -0.001933 -1.000000 -4.249513
v -0.001934 1.000000 -1.421086
vt 1.000000 0.000000
vt 0.000000 1.000000
vt 0.000000 0.000000
vt 1.000000 1.000000
vt 1.000000 0.000000
vt 0.000000 1.000000
vt 0.000000 0.000000
vt 1.000000 0.000000
vt 0.000000 1.000000
vt 0.000000 0.000000
vt 1.000000 0.000000
vt 0.000000 0.000000
vt 1.000000 1.000000
vt 0.000000 1.000000
vt 1.000000 1.000000
vn 0.5000 0.7071 0.5000
vn 0.5000 0.7071 -0.5000
vn 0.5774 0.8165 0.0000
vn 0.2294 0.9733 0.0000
vn -0.5000 0.7071 -0.5000
vn -0.5000 0.7071 0.5000
usemtl BGreen
s off
f 2/1/1 3/2/1 1/3/1
f 2/1/1 4/4/1 3/2/1
f 3/5/2 9/6/2 10/7/2
f 3/5/2 4/4/2 9/6/2
usemtl Blue
f 6/8/3 7/9/3 5/10/3
f 6/8/4 4/4/4 7/9/4
usemtl Green
f 5/11/5 9/6/5 8/12/5
f 5/11/5 10/13/5 9/6/5
f 2/1/6 5/14/6 8/12/6
f 2/1/6 1/15/6 5/14/6
