# Blender v2.92.0 OBJ File: 'PinballBoardBlender.blend'
# www.blender.org
mtllib topWall.mtl
o Cube.002_Cube.004
v 10.629289 -1.731433 7.351319
v 10.629289 1.784308 7.351319
v -10.629289 -1.731433 7.351320
v -10.629289 1.784308 7.351320
v 10.629289 -1.731433 -1.697103
v 10.629289 1.784308 -1.697103
v -10.629289 -1.731433 -1.697102
v -10.629289 1.784308 -1.697102
v 0.005074 -1.731433 1.433213
v 0.005074 1.784308 1.433213
v 2.084145 -1.731433 1.534635
v 2.084145 1.784308 1.534635
v 4.083318 -1.731433 1.835006
v 4.083318 1.784308 1.835006
v 5.925766 -1.731433 2.322781
v 5.925766 1.784308 2.322781
v 7.540685 -1.731433 2.979216
v 7.540685 1.784308 2.979216
v 8.866016 -1.731433 3.779084
v 8.866016 1.784308 3.779084
v 9.850824 -1.731433 4.691647
v 9.850824 1.784308 4.691647
v 10.457268 -1.731433 5.681835
v 10.457268 1.784308 5.681835
v 10.629289 -1.731433 6.546903
v 10.629289 1.784308 6.546903
v 10.629289 -1.731433 6.876290
v 10.629289 1.784308 6.876290
v 10.534828 -1.731433 7.351319
v 10.534828 1.784308 7.351319
v -10.524681 -1.731433 7.351320
v -10.524681 1.784308 7.351320
v -10.629289 -1.731433 6.825254
v -10.629289 1.784308 6.825254
v -10.629289 1.784308 6.597935
v -10.629289 -1.731433 6.597935
v -10.447118 -1.731433 5.681831
v -10.447118 1.784308 5.681831
v -9.840672 -1.731433 4.691642
v -9.840672 1.784308 4.691642
v -8.855861 -1.731433 3.779079
v -8.855861 1.784308 3.779079
v -7.530529 -1.731433 2.979212
v -7.530529 1.784308 2.979212
v -5.915606 -1.731433 2.322777
v -5.915606 1.784308 2.322777
v -4.073155 -1.731433 1.835003
v -4.073155 1.784308 1.835003
v -2.073981 -1.731433 1.534634
v -2.073981 1.784308 1.534634
vt 0.625000 0.500000
vt 0.375000 0.750000
vt 0.375000 0.500000
vt 0.968750 0.629113
vt 1.000000 0.797177
vt 1.000000 0.629113
vt 0.937500 0.797177
vt 0.937500 0.629113
vt 0.906250 0.629113
vt 0.875000 0.629113
vt 0.906250 0.797177
vt 0.843750 0.629113
vt 0.875000 0.797177
vt 0.812500 0.629113
vt 0.843750 0.797177
vt 0.781250 0.629113
vt 0.812500 0.797177
vt 0.781250 0.629113
vt 0.754998 0.797177
vt 0.781250 0.797177
vt 0.745002 0.797177
vt 0.730586 0.629113
vt 0.730586 0.797177
vt 0.269414 0.797177
vt 0.253449 0.629113
vt 0.253449 0.797177
vt 0.218750 0.629113
vt 0.246551 0.797177
vt 0.246551 0.629113
vt 0.187500 0.629113
vt 0.218750 0.797177
vt 0.156250 0.629113
vt 0.187500 0.797177
vt 0.125000 0.629113
vt 0.156250 0.797177
vt 0.093750 0.629113
vt 0.125000 0.797177
vt 0.062500 0.629113
vt 0.093750 0.797177
vt 0.031250 0.629113
vt 0.062500 0.797177
vt 0.031250 0.797177
vt 0.000000 0.629113
vt 0.000000 0.797177
vt 0.375000 0.000000
vt 0.625000 0.001111
vt 0.375000 0.001111
vt 0.625000 0.250000
vt 0.375000 0.248770
vt 0.625000 0.248770
vt 0.375000 0.264535
vt 0.375000 0.250000
vt 0.375000 0.270815
vt 0.625000 0.270815
vt 0.625000 0.977775
vt 0.375000 0.977775
vt 0.375000 1.000000
vt 0.625000 0.986875
vt 0.625000 1.000000
vt 0.125000 0.500000
vt 0.139535 0.500000
vt 0.125000 0.501230
vt 0.288512 0.625060
vt 0.285710 0.600610
vt 0.138125 0.750000
vt 0.125000 0.750000
vt 0.125000 0.748889
vt 0.875000 0.500000
vt 0.875000 0.501230
vt 0.860465 0.500000
vt 0.875000 0.748889
vt 0.875000 0.750000
vt 0.861875 0.750000
vt 0.711488 0.625060
vt 0.714290 0.649509
vt 0.625000 0.750000
vt 0.968750 0.797177
vt 0.754998 0.629113
vt 0.745002 0.629113
vt 0.269414 0.629113
vt 0.625000 0.000000
vt 0.625000 0.264535
vt 0.375000 0.986875
vt 0.171127 0.502142
vt 0.145815 0.500000
vt 0.147225 0.750000
vt 0.171126 0.747977
vt 0.198484 0.740845
vt 0.198485 0.509274
vt 0.223698 0.520855
vt 0.223698 0.729264
vt 0.245797 0.713678
vt 0.245798 0.536441
vt 0.263934 0.555433
vt 0.263934 0.694687
vt 0.277411 0.673020
vt 0.277411 0.577100
vt 0.285710 0.649509
vt 0.828874 0.747977
vt 0.852775 0.750000
vt 0.854185 0.500000
vt 0.828873 0.502142
vt 0.801515 0.509274
vt 0.801516 0.740845
vt 0.776302 0.729264
vt 0.776302 0.520855
vt 0.754202 0.536441
vt 0.754203 0.713678
vt 0.736066 0.694687
vt 0.736066 0.555433
vt 0.722589 0.577100
vt 0.722589 0.673020
vt 0.714290 0.600610
vn -0.0000 0.0000 -1.0000
vn -0.0487 0.0000 0.9988
vn -0.1486 0.0000 0.9889
vn -0.2559 0.0000 0.9667
vn -0.3766 0.0000 0.9264
vn -0.5167 0.0000 0.8562
vn -0.6797 0.0000 0.7335
vn -0.8528 0.0000 0.5223
vn -0.9808 0.0000 0.1950
vn -0.9808 0.0000 -0.1950
vn 0.9808 0.0000 -0.1950
vn 0.9808 0.0000 0.1950
vn 0.8528 0.0000 0.5223
vn 0.6797 0.0000 0.7335
vn 0.5167 0.0000 0.8562
vn 0.3766 0.0000 0.9264
vn 0.2559 0.0000 0.9667
vn 0.1486 0.0000 0.9889
vn 0.0487 0.0000 0.9988
vn 0.0000 0.0000 1.0000
vn -1.0000 0.0000 0.0000
vn 1.0000 0.0000 0.0000
vn 0.0000 -1.0000 0.0000
vn 0.0000 1.0000 0.0000
usemtl Material.003
s off
f 8/1/1 5/2/1 7/3/1
f 11/4/2 10/5/2 9/6/2
f 14/7/3 11/4/3 13/8/3
f 15/9/4 14/7/4 13/8/4
f 17/10/5 16/11/5 15/9/5
f 19/12/6 18/13/6 17/10/6
f 21/14/7 20/15/7 19/12/7
f 23/16/8 22/17/8 21/14/8
f 23/18/9 26/19/9 24/20/9
f 28/21/10 29/22/10 30/23/10
f 32/24/11 33/25/11 34/26/11
f 37/27/12 35/28/12 36/29/12
f 39/30/13 38/31/13 37/27/13
f 41/32/14 40/33/14 39/30/14
f 43/34/15 42/35/15 41/32/15
f 45/36/16 44/37/16 43/34/16
f 47/38/17 46/39/17 45/36/17
f 49/40/18 48/41/18 47/38/18
f 50/42/19 9/43/19 10/44/19
f 1/45/20 30/46/20 29/47/20
f 4/48/20 31/49/20 32/50/20
f 4/48/21 33/51/21 3/52/21
f 8/1/21 36/53/21 35/54/21
f 5/2/22 26/55/22 25/56/22
f 1/57/22 28/58/22 2/59/22
f 3/60/23 33/61/23 31/62/23
f 9/63/23 49/64/23 7/3/23
f 27/65/23 1/66/23 29/67/23
f 4/68/24 32/69/24 34/70/24
f 30/71/24 2/72/24 28/73/24
f 10/74/24 12/75/24 6/76/24
f 8/1/1 6/76/1 5/2/1
f 11/4/2 12/77/2 10/5/2
f 14/7/3 12/77/3 11/4/3
f 15/9/4 16/11/4 14/7/4
f 17/10/5 18/13/5 16/11/5
f 19/12/6 20/15/6 18/13/6
f 21/14/7 22/17/7 20/15/7
f 23/16/8 24/20/8 22/17/8
f 23/18/9 25/78/9 26/19/9
f 28/21/10 27/79/10 29/22/10
f 32/24/11 31/80/11 33/25/11
f 37/27/12 38/31/12 35/28/12
f 39/30/13 40/33/13 38/31/13
f 41/32/14 42/35/14 40/33/14
f 43/34/15 44/37/15 42/35/15
f 45/36/16 46/39/16 44/37/16
f 47/38/17 48/41/17 46/39/17
f 49/40/18 50/42/18 48/41/18
f 50/42/19 49/40/19 9/43/19
f 1/45/20 2/81/20 30/46/20
f 4/48/20 3/52/20 31/49/20
f 4/48/21 34/82/21 33/51/21
f 8/1/21 7/3/21 36/53/21
f 5/2/22 6/76/22 26/55/22
f 1/57/22 27/83/22 28/58/22
f 37/84/23 36/85/23 7/3/23
f 5/2/23 25/86/23 23/87/23
f 5/2/23 23/87/23 21/88/23
f 39/89/23 37/84/23 7/3/23
f 41/90/23 39/89/23 7/3/23
f 5/2/23 21/88/23 19/91/23
f 5/2/23 19/91/23 17/92/23
f 43/93/23 41/90/23 7/3/23
f 45/94/23 43/93/23 7/3/23
f 5/2/23 17/92/23 15/95/23
f 5/2/23 15/95/23 13/96/23
f 47/97/23 45/94/23 7/3/23
f 49/64/23 47/97/23 7/3/23
f 7/3/23 5/2/23 9/63/23
f 5/2/23 13/96/23 11/98/23
f 5/2/23 11/98/23 9/63/23
f 24/99/24 26/100/24 6/76/24
f 8/1/24 35/101/24 38/102/24
f 8/1/24 38/102/24 40/103/24
f 22/104/24 24/99/24 6/76/24
f 20/105/24 22/104/24 6/76/24
f 8/1/24 40/103/24 42/106/24
f 8/1/24 42/106/24 44/107/24
f 18/108/24 20/105/24 6/76/24
f 16/109/24 18/108/24 6/76/24
f 8/1/24 44/107/24 46/110/24
f 8/1/24 46/110/24 48/111/24
f 14/112/24 16/109/24 6/76/24
f 12/75/24 14/112/24 6/76/24
f 6/76/24 8/1/24 10/74/24
f 8/1/24 48/111/24 50/113/24
f 8/1/24 50/113/24 10/74/24
