# Blender v2.92.0 OBJ File: 'untitled - Copy.blend'
# www.blender.org
mtllib WallSide2.mtl
o WallSide2_Wall2
v -0.799196 -9.435592 34.528584
v -0.799196 9.435592 34.528584
v -0.799196 -9.435592 -34.528584
v -0.799196 9.435592 -34.528584
v 0.799196 -9.435592 34.528584
v 0.799196 9.435592 34.528584
v 0.799196 -9.435592 -34.528584
v 0.799196 9.435592 -34.528584
vt 0.833947 -1.497429
vt 0.081616 -0.745098
vt 0.081616 -1.497429
vt 0.833947 -0.745098
vt 0.081616 0.007233
vt 0.833947 0.007233
vt 0.081616 0.759564
vt 0.833947 0.759564
vt 0.081616 1.511895
vt -0.670715 0.759564
vt -0.670715 0.007233
vt 1.586279 0.007233
vt 0.833947 1.511895
vt 1.586279 0.759564
vn -1.0000 0.0000 0.0000
vn 0.0000 0.0000 -1.0000
vn 1.0000 0.0000 0.0000
vn 0.0000 0.0000 1.0000
vn 0.0000 -1.0000 0.0000
vn 0.0000 1.0000 0.0000
usemtl Material.003
s off
f 2/1/1 3/2/1 1/3/1
f 4/4/2 7/5/2 3/2/2
f 8/6/3 5/7/3 7/5/3
f 6/8/4 1/9/4 5/7/4
f 7/5/5 1/10/5 3/11/5
f 4/12/6 6/8/6 8/6/6
f 2/1/1 4/4/1 3/2/1
f 4/4/2 8/6/2 7/5/2
f 8/6/3 6/8/3 5/7/3
f 6/8/4 2/13/4 1/9/4
f 7/5/5 5/7/5 1/10/5
f 4/12/6 2/14/6 6/8/6
