# Blender v2.92.0 OBJ File: 'untitled - Copy.blend'
# www.blender.org
mtllib WallDown2.mtl
o WallDown2_Cube.013
v -29.910921 -10.445049 0.327440
v -29.910921 10.445049 0.327440
v -29.910921 -10.445049 -0.327440
v -29.910921 10.445049 -0.327440
v 29.910921 -10.445049 0.327440
v 29.910921 10.445049 0.327440
v 29.910921 -10.445049 -0.327440
v 29.910921 10.445049 -0.327440
vt 0.957247 -1.788237
vt 0.042753 -0.873743
vt 0.042753 -1.788237
vt 0.957247 -0.873743
vt 0.042753 0.040752
vt 0.957247 0.040752
vt 0.042753 0.955246
vt 0.957247 0.955246
vt 0.042753 1.869741
vt -0.871742 0.955246
vt -0.871742 0.040752
vt 1.871742 0.040752
vt 0.957247 1.869741
vt 1.871742 0.955246
vn -1.0000 0.0000 0.0000
vn 0.0000 0.0000 -1.0000
vn 1.0000 0.0000 0.0000
vn 0.0000 0.0000 1.0000
vn 0.0000 -1.0000 0.0000
vn 0.0000 1.0000 0.0000
usemtl Material.003
s off
f 2/1/1 3/2/1 1/3/1
f 4/4/2 7/5/2 3/2/2
f 8/6/3 5/7/3 7/5/3
f 6/8/4 1/9/4 5/7/4
f 7/5/5 1/10/5 3/11/5
f 4/12/6 6/8/6 8/6/6
f 2/1/1 4/4/1 3/2/1
f 4/4/2 8/6/2 7/5/2
f 8/6/3 6/8/3 5/7/3
f 6/8/4 2/13/4 1/9/4
f 7/5/5 5/7/5 1/10/5
f 4/12/6 2/14/6 6/8/6
