# Blender v2.92.0 OBJ File: 'room.blend'
# www.blender.org
mtllib Butress1.mtl
o butress1_Cube.005
v -20.192757 5.310333 9.641869
v -20.192757 -5.310333 -0.251513
v -20.192757 5.310333 -0.251513
v -19.171608 5.310333 9.641869
v -19.171608 -5.310333 -0.251513
v -19.171608 5.310333 -0.251513
v -20.192757 3.734831 9.623003
v -20.192757 3.732973 9.641869
v -19.171608 3.732973 9.641869
v -19.171608 3.734831 9.623003
v -20.192757 3.560439 7.852392
v -19.171608 3.560439 7.852392
v -20.192757 3.043969 6.149825
v -19.171608 3.043969 6.149825
v -20.192757 2.205268 4.580729
v -19.171608 2.205268 4.580729
v -20.192757 1.076568 3.205408
v -19.171608 1.076568 3.205408
v -20.192757 -0.298757 2.076711
v -19.171608 -0.298757 2.076711
v -20.192757 -1.867853 1.238014
v -19.171608 -1.867853 1.238014
v -20.192757 -3.570421 0.721548
v -19.171608 -3.570421 0.721548
v -20.192757 -5.310333 0.550183
v -19.171608 -5.310333 0.550183
v -12.256783 5.310333 9.641868
v -12.256783 -5.310333 -0.251512
v -12.256783 5.310333 -0.251512
v -11.235632 5.310333 9.641868
v -11.235632 -5.310333 -0.251512
v -11.235632 5.310333 -0.251512
v -12.256783 3.734831 9.623002
v -12.256783 3.732973 9.641868
v -11.235632 3.732973 9.641868
v -11.235632 3.734831 9.623002
v -12.256783 3.560439 7.852391
v -11.235632 3.560439 7.852391
v -12.256783 3.043969 6.149825
v -11.235632 3.043969 6.149825
v -12.256783 2.205268 4.580729
v -11.235632 2.205268 4.580729
v -12.256783 1.076568 3.205408
v -11.235632 1.076568 3.205408
v -12.256783 -0.298757 2.076711
v -11.235632 -0.298757 2.076711
v -12.256783 -1.867853 1.238014
v -11.235632 -1.867853 1.238014
v -12.256783 -3.570421 0.721549
v -11.235632 -3.570421 0.721549
v -12.256783 -5.310333 0.550183
v -11.235632 -5.310333 0.550183
v -0.712340 5.310333 9.641868
v -0.712340 -5.310333 -0.251512
v -0.712340 5.310333 -0.251512
v 0.308810 5.310333 9.641868
v 0.308810 -5.310333 -0.251512
v 0.308810 5.310333 -0.251512
v -0.712340 3.734831 9.623002
v -0.712340 3.732973 9.641868
v 0.308810 3.732973 9.641868
v 0.308810 3.734831 9.623002
v -0.712340 3.560439 7.852391
v 0.308810 3.560439 7.852391
v -0.712340 3.043969 6.149825
v 0.308810 3.043969 6.149825
v -0.712340 2.205268 4.580729
v 0.308810 2.205268 4.580729
v -0.712340 1.076568 3.205408
v 0.308810 1.076568 3.205408
v -0.712340 -0.298757 2.076711
v 0.308810 -0.298757 2.076711
v -0.712340 -1.867853 1.238014
v 0.308810 -1.867853 1.238014
v -0.712340 -3.570421 0.721549
v 0.308810 -3.570421 0.721549
v -0.712340 -5.310333 0.550183
v 0.308810 -5.310333 0.550183
v 12.178820 5.310333 9.641868
v 12.178820 -5.310333 -0.251512
v 12.178820 5.310333 -0.251512
v 13.199970 5.310333 9.641868
v 13.199970 -5.310333 -0.251512
v 13.199970 5.310333 -0.251512
v 12.178820 3.734831 9.623002
v 12.178820 3.732973 9.641868
v 13.199970 3.732973 9.641868
v 13.199970 3.734831 9.623002
v 12.178820 3.560439 7.852391
v 13.199970 3.560439 7.852391
v 12.178820 3.043969 6.149825
v 13.199970 3.043969 6.149825
v 12.178820 2.205268 4.580729
v 13.199970 2.205268 4.580729
v 12.178820 1.076568 3.205408
v 13.199970 1.076568 3.205408
v 12.178820 -0.298757 2.076711
v 13.199970 -0.298757 2.076711
v 12.178820 -1.867853 1.238014
v 13.199970 -1.867853 1.238014
v 12.178820 -3.570421 0.721549
v 13.199970 -3.570421 0.721549
v 12.178820 -5.310333 0.550183
v 13.199970 -5.310333 0.550183
v 21.205725 5.310333 9.641868
v 21.205725 -5.310333 -0.251512
v 21.205725 5.310333 -0.251512
v 22.226875 5.310333 9.641868
v 22.226875 -5.310333 -0.251512
v 22.226875 5.310333 -0.251512
v 21.205725 3.734831 9.623002
v 21.205725 3.732973 9.641868
v 22.226875 3.732973 9.641868
v 22.226875 3.734831 9.623002
v 21.205725 3.560439 7.852391
v 22.226875 3.560439 7.852391
v 21.205725 3.043969 6.149825
v 22.226875 3.043969 6.149825
v 21.205725 2.205268 4.580729
v 22.226875 2.205268 4.580729
v 21.205725 1.076568 3.205408
v 22.226875 1.076568 3.205408
v 21.205725 -0.298757 2.076711
v 22.226875 -0.298757 2.076711
v 21.205725 -1.867853 1.238014
v 22.226875 -1.867853 1.238014
v 21.205725 -3.570421 0.721549
v 22.226875 -3.570421 0.721549
v 21.205725 -5.310333 0.550183
v 22.226875 -5.310333 0.550183
vt 0.625000 0.250000
vt 0.375000 0.500000
vt 0.375000 0.250000
vt 0.875000 0.500000
vt 0.625000 0.750000
vt 0.625000 0.500000
vt 0.250333 0.735936
vt 0.250000 0.764064
vt 0.250333 0.764064
vt 0.250000 0.735936
vt 0.218750 0.764064
vt 0.218750 0.735936
vt 0.187500 0.764064
vt 0.187500 0.735936
vt 0.156250 0.764064
vt 0.125000 0.764064
vt 0.156250 0.735936
vt 0.125000 0.735936
vt 0.093750 0.735936
vt 0.062500 0.735936
vt 0.093750 0.764064
vt 0.031250 0.735936
vt 0.062500 0.764064
vt 0.031250 0.764064
vt 0.000542 0.735936
vt 0.000542 0.764064
vt 0.525341 0.162646
vt 0.551910 0.127892
vt 0.551910 0.622108
vt 0.525341 0.587354
vt 0.587871 1.000000
vt 0.587871 0.750000
vt 0.125000 0.500000
vt 0.375000 0.520258
vt 0.125000 0.520258
vt 0.625000 0.250000
vt 0.375000 0.500000
vt 0.375000 0.250000
vt 0.875000 0.500000
vt 0.625000 0.750000
vt 0.625000 0.500000
vt 0.250333 0.735936
vt 0.250000 0.764064
vt 0.250333 0.764064
vt 0.250000 0.735936
vt 0.218750 0.764064
vt 0.218750 0.735936
vt 0.187500 0.764064
vt 0.187500 0.735936
vt 0.156250 0.764064
vt 0.125000 0.764064
vt 0.156250 0.735936
vt 0.125000 0.735936
vt 0.093750 0.735936
vt 0.062500 0.735936
vt 0.093750 0.764064
vt 0.031250 0.735936
vt 0.062500 0.764064
vt 0.031250 0.764064
vt 0.000542 0.735936
vt 0.000542 0.764064
vt 0.525341 0.162646
vt 0.551910 0.127892
vt 0.551910 0.622108
vt 0.525341 0.587354
vt 0.587871 1.000000
vt 0.587871 0.750000
vt 0.125000 0.500000
vt 0.375000 0.520258
vt 0.125000 0.520258
vt 0.625000 0.250000
vt 0.375000 0.500000
vt 0.375000 0.250000
vt 0.875000 0.500000
vt 0.625000 0.750000
vt 0.625000 0.500000
vt 0.250333 0.735936
vt 0.250000 0.764064
vt 0.250333 0.764064
vt 0.250000 0.735936
vt 0.218750 0.764064
vt 0.218750 0.735936
vt 0.187500 0.764064
vt 0.187500 0.735936
vt 0.156250 0.764064
vt 0.125000 0.764064
vt 0.156250 0.735936
vt 0.125000 0.735936
vt 0.093750 0.735936
vt 0.062500 0.735936
vt 0.093750 0.764064
vt 0.031250 0.735936
vt 0.062500 0.764064
vt 0.031250 0.764064
vt 0.000542 0.735936
vt 0.000542 0.764064
vt 0.525341 0.162646
vt 0.551910 0.127892
vt 0.551910 0.622108
vt 0.525341 0.587354
vt 0.587871 1.000000
vt 0.587871 0.750000
vt 0.125000 0.500000
vt 0.375000 0.520258
vt 0.125000 0.520258
vt 0.625000 0.250000
vt 0.375000 0.500000
vt 0.375000 0.250000
vt 0.875000 0.500000
vt 0.625000 0.750000
vt 0.625000 0.500000
vt 0.250333 0.735936
vt 0.250000 0.764064
vt 0.250333 0.764064
vt 0.250000 0.735936
vt 0.218750 0.764064
vt 0.218750 0.735936
vt 0.187500 0.764064
vt 0.187500 0.735936
vt 0.156250 0.764064
vt 0.125000 0.764064
vt 0.156250 0.735936
vt 0.125000 0.735936
vt 0.093750 0.735936
vt 0.062500 0.735936
vt 0.093750 0.764064
vt 0.031250 0.735936
vt 0.062500 0.764064
vt 0.031250 0.764064
vt 0.000542 0.735936
vt 0.000542 0.764064
vt 0.525341 0.162646
vt 0.551910 0.127892
vt 0.551910 0.622108
vt 0.525341 0.587354
vt 0.587871 1.000000
vt 0.587871 0.750000
vt 0.125000 0.500000
vt 0.375000 0.520258
vt 0.125000 0.520258
vt 0.625000 0.250000
vt 0.375000 0.500000
vt 0.375000 0.250000
vt 0.875000 0.500000
vt 0.625000 0.750000
vt 0.625000 0.500000
vt 0.250333 0.735936
vt 0.250000 0.764064
vt 0.250333 0.764064
vt 0.250000 0.735936
vt 0.218750 0.764064
vt 0.218750 0.735936
vt 0.187500 0.764064
vt 0.187500 0.735936
vt 0.156250 0.764064
vt 0.125000 0.764064
vt 0.156250 0.735936
vt 0.125000 0.735936
vt 0.093750 0.735936
vt 0.062500 0.735936
vt 0.093750 0.764064
vt 0.031250 0.735936
vt 0.062500 0.764064
vt 0.031250 0.764064
vt 0.000542 0.735936
vt 0.000542 0.764064
vt 0.525341 0.162646
vt 0.551910 0.127892
vt 0.551910 0.622108
vt 0.525341 0.587354
vt 0.587871 1.000000
vt 0.587871 0.750000
vt 0.125000 0.500000
vt 0.375000 0.520258
vt 0.125000 0.520258
vt 0.875000 0.750000
vt 0.587914 0.000477
vt 0.587871 0.000000
vt 0.625000 0.000000
vt 0.456033 0.212361
vt 0.375000 0.229742
vt 0.415956 0.225411
vt 0.583809 0.045219
vt 0.571652 0.088242
vt 0.492968 0.191167
vt 0.415956 0.524589
vt 0.571652 0.661758
vt 0.587914 0.749523
vt 0.583809 0.704781
vt 0.456033 0.537639
vt 0.492968 0.558833
vt 0.625000 1.000000
vt 0.875000 0.750000
vt 0.587914 0.000477
vt 0.587871 0.000000
vt 0.625000 0.000000
vt 0.456033 0.212361
vt 0.375000 0.229742
vt 0.415956 0.225411
vt 0.583809 0.045219
vt 0.571652 0.088242
vt 0.492968 0.191167
vt 0.415956 0.524589
vt 0.571652 0.661758
vt 0.587914 0.749523
vt 0.583809 0.704781
vt 0.456033 0.537639
vt 0.492968 0.558833
vt 0.625000 1.000000
vt 0.875000 0.750000
vt 0.587914 0.000477
vt 0.587871 0.000000
vt 0.625000 0.000000
vt 0.456033 0.212361
vt 0.375000 0.229742
vt 0.415956 0.225411
vt 0.583809 0.045219
vt 0.571652 0.088242
vt 0.492968 0.191167
vt 0.415956 0.524589
vt 0.571652 0.661758
vt 0.587914 0.749523
vt 0.583809 0.704781
vt 0.456033 0.537639
vt 0.492968 0.558833
vt 0.625000 1.000000
vt 0.875000 0.750000
vt 0.587914 0.000477
vt 0.587871 0.000000
vt 0.625000 0.000000
vt 0.456033 0.212361
vt 0.375000 0.229742
vt 0.415956 0.225411
vt 0.583809 0.045219
vt 0.571652 0.088242
vt 0.492968 0.191167
vt 0.415956 0.524589
vt 0.571652 0.661758
vt 0.587914 0.749523
vt 0.583809 0.704781
vt 0.456033 0.537639
vt 0.492968 0.558833
vt 0.625000 1.000000
vt 0.875000 0.750000
vt 0.587914 0.000477
vt 0.587871 0.000000
vt 0.625000 0.000000
vt 0.456033 0.212361
vt 0.375000 0.229742
vt 0.415956 0.225411
vt 0.583809 0.045219
vt 0.571652 0.088242
vt 0.492968 0.191167
vt 0.415956 0.524589
vt 0.571652 0.661758
vt 0.587914 0.749523
vt 0.583809 0.704781
vt 0.456033 0.537639
vt 0.492968 0.558833
vt 0.625000 1.000000
vn 0.0000 0.0000 -1.0000
vn 0.0000 1.0000 0.0000
vn 0.0000 -0.9952 -0.0980
vn 0.0000 -0.9952 0.0980
vn 0.0000 -0.9569 0.2903
vn 0.0000 -0.8819 0.4714
vn 0.0000 -0.7730 0.6344
vn 0.0000 -0.6344 0.7730
vn 0.0000 -0.4714 0.8819
vn 0.0000 -0.2903 0.9569
vn 0.0000 -0.0980 0.9952
vn -1.0000 0.0000 0.0000
vn 1.0000 0.0000 0.0000
vn 0.0000 0.0000 1.0000
vn 0.0000 -1.0000 0.0000
usemtl Material.006
s off
f 3/1/1 5/2/1 2/3/1
f 3/4/2 4/5/2 6/6/2
f 8/7/3 10/8/3 9/9/3
f 7/10/4 12/11/4 10/8/4
f 11/12/5 14/13/5 12/11/5
f 13/14/6 16/15/6 14/13/6
f 18/16/7 15/17/7 17/18/7
f 19/19/8 18/16/8 17/18/8
f 21/20/9 20/21/9 19/19/9
f 23/22/10 22/23/10 21/20/10
f 24/24/11 25/25/11 26/26/11
f 3/1/12 17/27/12 15/28/12
f 6/6/13 16/29/13 18/30/13
f 4/5/14 8/31/14 9/32/14
f 2/33/15 26/34/15 25/35/15
f 29/36/1 31/37/1 28/38/1
f 29/39/2 30/40/2 32/41/2
f 34/42/3 36/43/3 35/44/3
f 33/45/4 38/46/4 36/43/4
f 37/47/5 40/48/5 38/46/5
f 39/49/6 42/50/6 40/48/6
f 44/51/7 41/52/7 43/53/7
f 45/54/8 44/51/8 43/53/8
f 47/55/9 46/56/9 45/54/9
f 49/57/10 48/58/10 47/55/10
f 50/59/11 51/60/11 52/61/11
f 29/36/12 43/62/12 41/63/12
f 32/41/13 42/64/13 44/65/13
f 30/40/14 34/66/14 35/67/14
f 28/68/15 52/69/15 51/70/15
f 55/71/1 57/72/1 54/73/1
f 55/74/2 56/75/2 58/76/2
f 60/77/3 62/78/3 61/79/3
f 59/80/4 64/81/4 62/78/4
f 63/82/5 66/83/5 64/81/5
f 65/84/6 68/85/6 66/83/6
f 70/86/7 67/87/7 69/88/7
f 71/89/8 70/86/8 69/88/8
f 73/90/9 72/91/9 71/89/9
f 75/92/10 74/93/10 73/90/10
f 76/94/11 77/95/11 78/96/11
f 55/71/12 69/97/12 67/98/12
f 58/76/13 68/99/13 70/100/13
f 56/75/14 60/101/14 61/102/14
f 54/103/15 78/104/15 77/105/15
f 81/106/1 83/107/1 80/108/1
f 81/109/2 82/110/2 84/111/2
f 86/112/3 88/113/3 87/114/3
f 85/115/4 90/116/4 88/113/4
f 89/117/5 92/118/5 90/116/5
f 91/119/6 94/120/6 92/118/6
f 96/121/7 93/122/7 95/123/7
f 97/124/8 96/121/8 95/123/8
f 99/125/9 98/126/9 97/124/9
f 101/127/10 100/128/10 99/125/10
f 102/129/11 103/130/11 104/131/11
f 81/106/12 95/132/12 93/133/12
f 84/111/13 94/134/13 96/135/13
f 82/110/14 86/136/14 87/137/14
f 80/138/15 104/139/15 103/140/15
f 107/141/1 109/142/1 106/143/1
f 107/144/2 108/145/2 110/146/2
f 112/147/3 114/148/3 113/149/3
f 111/150/4 116/151/4 114/148/4
f 115/152/5 118/153/5 116/151/5
f 117/154/6 120/155/6 118/153/6
f 122/156/7 119/157/7 121/158/7
f 123/159/8 122/156/8 121/158/8
f 125/160/9 124/161/9 123/159/9
f 127/162/10 126/163/10 125/160/10
f 128/164/11 129/165/11 130/166/11
f 107/141/12 121/167/12 119/168/12
f 110/146/13 120/169/13 122/170/13
f 108/145/14 112/171/14 113/172/14
f 106/173/15 130/174/15 129/175/15
f 3/1/1 6/6/1 5/2/1
f 3/4/2 1/176/2 4/5/2
f 8/7/3 7/10/3 10/8/3
f 7/10/4 11/12/4 12/11/4
f 11/12/5 13/14/5 14/13/5
f 13/14/6 15/17/6 16/15/6
f 18/16/7 16/15/7 15/17/7
f 19/19/8 20/21/8 18/16/8
f 21/20/9 22/23/9 20/21/9
f 23/22/10 24/24/10 22/23/10
f 24/24/11 23/22/11 25/25/11
f 7/177/12 8/178/12 1/179/12
f 3/1/12 2/3/12 21/180/12
f 2/3/12 25/181/12 23/182/12
f 2/3/12 23/182/12 21/180/12
f 7/177/12 1/179/12 11/183/12
f 1/179/12 3/1/12 13/184/12
f 11/183/12 1/179/12 13/184/12
f 3/1/12 21/180/12 19/185/12
f 15/28/12 13/184/12 3/1/12
f 3/1/12 19/185/12 17/27/12
f 24/186/13 26/34/13 5/2/13
f 6/6/13 4/5/13 14/187/13
f 4/5/13 9/32/13 10/188/13
f 4/5/13 10/188/13 12/189/13
f 24/186/13 5/2/13 22/190/13
f 5/2/13 6/6/13 22/190/13
f 4/5/13 12/189/13 14/187/13
f 20/191/13 22/190/13 6/6/13
f 18/30/13 20/191/13 6/6/13
f 6/6/13 14/187/13 16/29/13
f 4/5/14 1/192/14 8/31/14
f 2/33/15 5/2/15 26/34/15
f 29/36/1 32/41/1 31/37/1
f 29/39/2 27/193/2 30/40/2
f 34/42/3 33/45/3 36/43/3
f 33/45/4 37/47/4 38/46/4
f 37/47/5 39/49/5 40/48/5
f 39/49/6 41/52/6 42/50/6
f 44/51/7 42/50/7 41/52/7
f 45/54/8 46/56/8 44/51/8
f 47/55/9 48/58/9 46/56/9
f 49/57/10 50/59/10 48/58/10
f 50/59/11 49/57/11 51/60/11
f 33/194/12 34/195/12 27/196/12
f 29/36/12 28/38/12 47/197/12
f 28/38/12 51/198/12 49/199/12
f 28/38/12 49/199/12 47/197/12
f 33/194/12 27/196/12 37/200/12
f 27/196/12 29/36/12 39/201/12
f 37/200/12 27/196/12 39/201/12
f 29/36/12 47/197/12 45/202/12
f 41/63/12 39/201/12 29/36/12
f 29/36/12 45/202/12 43/62/12
f 50/203/13 52/69/13 31/37/13
f 32/41/13 30/40/13 40/204/13
f 30/40/13 35/67/13 36/205/13
f 30/40/13 36/205/13 38/206/13
f 50/203/13 31/37/13 48/207/13
f 31/37/13 32/41/13 48/207/13
f 30/40/13 38/206/13 40/204/13
f 46/208/13 48/207/13 32/41/13
f 44/65/13 46/208/13 32/41/13
f 32/41/13 40/204/13 42/64/13
f 30/40/14 27/209/14 34/66/14
f 28/68/15 31/37/15 52/69/15
f 55/71/1 58/76/1 57/72/1
f 55/74/2 53/210/2 56/75/2
f 60/77/3 59/80/3 62/78/3
f 59/80/4 63/82/4 64/81/4
f 63/82/5 65/84/5 66/83/5
f 65/84/6 67/87/6 68/85/6
f 70/86/7 68/85/7 67/87/7
f 71/89/8 72/91/8 70/86/8
f 73/90/9 74/93/9 72/91/9
f 75/92/10 76/94/10 74/93/10
f 76/94/11 75/92/11 77/95/11
f 59/211/12 60/212/12 53/213/12
f 55/71/12 54/73/12 73/214/12
f 54/73/12 77/215/12 75/216/12
f 54/73/12 75/216/12 73/214/12
f 59/211/12 53/213/12 63/217/12
f 53/213/12 55/71/12 65/218/12
f 63/217/12 53/213/12 65/218/12
f 55/71/12 73/214/12 71/219/12
f 67/98/12 65/218/12 55/71/12
f 55/71/12 71/219/12 69/97/12
f 76/220/13 78/104/13 57/72/13
f 58/76/13 56/75/13 66/221/13
f 56/75/13 61/102/13 62/222/13
f 56/75/13 62/222/13 64/223/13
f 76/220/13 57/72/13 74/224/13
f 57/72/13 58/76/13 74/224/13
f 56/75/13 64/223/13 66/221/13
f 72/225/13 74/224/13 58/76/13
f 70/100/13 72/225/13 58/76/13
f 58/76/13 66/221/13 68/99/13
f 56/75/14 53/226/14 60/101/14
f 54/103/15 57/72/15 78/104/15
f 81/106/1 84/111/1 83/107/1
f 81/109/2 79/227/2 82/110/2
f 86/112/3 85/115/3 88/113/3
f 85/115/4 89/117/4 90/116/4
f 89/117/5 91/119/5 92/118/5
f 91/119/6 93/122/6 94/120/6
f 96/121/7 94/120/7 93/122/7
f 97/124/8 98/126/8 96/121/8
f 99/125/9 100/128/9 98/126/9
f 101/127/10 102/129/10 100/128/10
f 102/129/11 101/127/11 103/130/11
f 85/228/12 86/229/12 79/230/12
f 81/106/12 80/108/12 99/231/12
f 80/108/12 103/232/12 101/233/12
f 80/108/12 101/233/12 99/231/12
f 85/228/12 79/230/12 89/234/12
f 79/230/12 81/106/12 91/235/12
f 89/234/12 79/230/12 91/235/12
f 81/106/12 99/231/12 97/236/12
f 93/133/12 91/235/12 81/106/12
f 81/106/12 97/236/12 95/132/12
f 102/237/13 104/139/13 83/107/13
f 84/111/13 82/110/13 92/238/13
f 82/110/13 87/137/13 88/239/13
f 82/110/13 88/239/13 90/240/13
f 102/237/13 83/107/13 100/241/13
f 83/107/13 84/111/13 100/241/13
f 82/110/13 90/240/13 92/238/13
f 98/242/13 100/241/13 84/111/13
f 96/135/13 98/242/13 84/111/13
f 84/111/13 92/238/13 94/134/13
f 82/110/14 79/243/14 86/136/14
f 80/138/15 83/107/15 104/139/15
f 107/141/1 110/146/1 109/142/1
f 107/144/2 105/244/2 108/145/2
f 112/147/3 111/150/3 114/148/3
f 111/150/4 115/152/4 116/151/4
f 115/152/5 117/154/5 118/153/5
f 117/154/6 119/157/6 120/155/6
f 122/156/7 120/155/7 119/157/7
f 123/159/8 124/161/8 122/156/8
f 125/160/9 126/163/9 124/161/9
f 127/162/10 128/164/10 126/163/10
f 128/164/11 127/162/11 129/165/11
f 111/245/12 112/246/12 105/247/12
f 107/141/12 106/143/12 125/248/12
f 106/143/12 129/249/12 127/250/12
f 106/143/12 127/250/12 125/248/12
f 111/245/12 105/247/12 115/251/12
f 105/247/12 107/141/12 117/252/12
f 115/251/12 105/247/12 117/252/12
f 107/141/12 125/248/12 123/253/12
f 119/168/12 117/252/12 107/141/12
f 107/141/12 123/253/12 121/167/12
f 128/254/13 130/174/13 109/142/13
f 110/146/13 108/145/13 118/255/13
f 108/145/13 113/172/13 114/256/13
f 108/145/13 114/256/13 116/257/13
f 128/254/13 109/142/13 126/258/13
f 109/142/13 110/146/13 126/258/13
f 108/145/13 116/257/13 118/255/13
f 124/259/13 126/258/13 110/146/13
f 122/170/13 124/259/13 110/146/13
f 110/146/13 118/255/13 120/169/13
f 108/145/14 105/260/14 112/171/14
f 106/173/15 109/142/15 130/174/15
