# Blender v2.92.0 OBJ File: 'untitled - Copy.blend'
# www.blender.org
mtllib CoridorWallF.mtl
o CoridorWallF_Cube.002
v -15.350000 -5.531752 0.171606
v -15.350000 5.531752 0.171606
v -15.350000 -5.531752 -0.171606
v -15.350000 5.531752 -0.171606
v 15.350000 -5.531752 0.171606
v 15.350000 5.531752 0.171606
v 15.350000 -5.531752 -0.171606
v 15.350000 5.531752 -0.171606
vt 1.679628 -4.569126
vt -0.431948 -2.457550
vt -0.431948 -4.569126
vt 1.679628 -2.457550
vt -0.431948 -0.345974
vt 1.679628 -0.345974
vt -0.431948 1.765602
vt 1.679628 1.765602
vt -0.431948 3.877178
vt -2.543524 1.765602
vt -2.543524 -0.345974
vt 3.791204 -0.345974
vt 1.679628 3.877178
vt 3.791204 1.765602
vn -1.0000 0.0000 0.0000
vn 0.0000 0.0000 -1.0000
vn 1.0000 0.0000 0.0000
vn 0.0000 0.0000 1.0000
vn 0.0000 -1.0000 0.0000
vn 0.0000 1.0000 0.0000
usemtl Material.004
s off
f 2/1/1 3/2/1 1/3/1
f 4/4/2 7/5/2 3/2/2
f 8/6/3 5/7/3 7/5/3
f 6/8/4 1/9/4 5/7/4
f 7/5/5 1/10/5 3/11/5
f 4/12/6 6/8/6 8/6/6
f 2/1/1 4/4/1 3/2/1
f 4/4/2 8/6/2 7/5/2
f 8/6/3 6/8/3 5/7/3
f 6/8/4 2/13/4 1/9/4
f 7/5/5 5/7/5 1/10/5
f 4/12/6 2/14/6 6/8/6
