# Blender v2.92.0 OBJ File: 'untitled - Copy.blend'
# www.blender.org
mtllib CoridorWallR.mtl
o CoridorWallR_Cube.009
v -0.206174 -5.531752 15.350000
v -0.206174 5.531752 15.350000
v -0.206174 -5.531752 -15.350000
v -0.206174 5.531752 -15.350000
v 0.206174 -5.531752 15.350000
v 0.206174 5.531752 15.350000
v 0.206174 -5.531752 -15.350000
v 0.206174 5.531752 -15.350000
vt 1.245895 -3.000249
vt -0.245895 -1.508459
vt -0.245895 -3.000249
vt 1.245895 -1.508459
vt -0.245895 -0.016669
vt 1.245895 -0.016669
vt -0.245895 1.475122
vt 1.245895 1.475122
vt -0.245895 2.966913
vt -1.737686 1.475122
vt -1.737686 -0.016669
vt 2.737686 -0.016669
vt 1.245895 2.966913
vt 2.737686 1.475122
vn -1.0000 0.0000 0.0000
vn 0.0000 0.0000 -1.0000
vn 1.0000 0.0000 0.0000
vn 0.0000 0.0000 1.0000
vn 0.0000 -1.0000 0.0000
vn 0.0000 1.0000 0.0000
usemtl Material.004
s off
f 2/1/1 3/2/1 1/3/1
f 4/4/2 7/5/2 3/2/2
f 8/6/3 5/7/3 7/5/3
f 6/8/4 1/9/4 5/7/4
f 7/5/5 1/10/5 3/11/5
f 4/12/6 6/8/6 8/6/6
f 2/1/1 4/4/1 3/2/1
f 4/4/2 8/6/2 7/5/2
f 8/6/3 6/8/3 5/7/3
f 6/8/4 2/13/4 1/9/4
f 7/5/5 5/7/5 1/10/5
f 4/12/6 2/14/6 6/8/6
