# Blender v2.92.0 OBJ File: 'room.blend'
# www.blender.org
mtllib NewWall.mtl
o NewWall_Cube.001
v -0.367062 -8.632768 18.775314
v -0.367062 8.632768 18.775314
v -0.367062 -8.632768 -18.775314
v -0.367062 8.632768 -18.775314
v 0.367062 -8.632768 18.775314
v 0.367062 8.632768 18.775314
v 0.367062 -8.632768 -18.775314
v 0.367062 8.632768 -18.775314
v 0.367062 -0.777006 2.059417
v -0.367062 -0.777006 2.059417
v -0.367062 -0.306181 2.017711
v 0.367062 -0.306181 2.017711
v -0.367062 0.146549 1.894193
v 0.367062 0.146549 1.894193
v -0.367062 0.563789 1.693612
v 0.367062 0.563789 1.693612
v -0.367062 0.929503 1.423676
v 0.367062 0.929503 1.423676
v -0.367062 1.229635 1.094757
v 0.367062 1.229635 1.094757
v -0.367062 1.452654 0.719496
v 0.367062 1.452654 0.719496
v -0.367062 1.589988 0.312315
v 0.367062 1.589988 0.312315
v -0.367062 1.636360 -0.111140
v 0.367062 1.636360 -0.111140
v -0.367062 1.589987 -0.534595
v 0.367062 1.589987 -0.534595
v -0.367062 1.452652 -0.941776
v 0.367062 1.452652 -0.941776
v -0.367062 1.229633 -1.317036
v 0.367062 1.229633 -1.317036
v -0.367062 0.929499 -1.645954
v 0.367062 0.929499 -1.645954
v -0.367062 0.563785 -1.915890
v 0.367062 0.563785 -1.915890
v -0.367062 0.146545 -2.116471
v 0.367062 0.146545 -2.116471
v -0.367062 -0.306186 -2.239987
v 0.367062 -0.306186 -2.239987
v -0.367062 -0.777007 -2.281693
v 0.367062 -0.777007 -2.281693
v 0.367062 -6.025580 -2.242218
v -0.367062 -6.025580 -2.242218
v -0.367062 -6.025580 2.019942
v 0.367062 -6.025580 2.019942
vt 0.805643 -0.591525
vt 0.078623 0.135495
vt 0.078623 -0.591525
vt 0.805643 0.862515
vt 0.078623 1.589535
vt 0.078623 0.862515
vt -0.648397 0.862515
vt -0.648397 0.135495
vt 1.532663 0.135495
vt 0.805643 0.135495
vt 0.500000 0.666258
vt 0.468750 0.764686
vt 0.500000 0.764686
vt 0.468750 0.666258
vt 0.437500 0.764686
vt 0.437500 0.666258
vt 0.406250 0.764686
vt 0.406250 0.666258
vt 0.375000 0.764686
vt 0.375000 0.666258
vt 0.343750 0.764686
vt 0.343750 0.666258
vt 0.312500 0.764686
vt 0.312500 0.666258
vt 0.281250 0.764686
vt 0.281250 0.666258
vt 0.250000 0.764686
vt 0.250000 0.666258
vt 0.218750 0.764686
vt 0.218750 0.666258
vt 0.187500 0.764686
vt 0.156250 0.666258
vt 0.187500 0.666258
vt 0.125000 0.666258
vt 0.156250 0.764686
vt 0.093750 0.764686
vt 0.125000 0.764686
vt 0.062500 0.666258
vt 0.093750 0.666258
vt 0.031250 0.666258
vt 0.062500 0.764686
vt 0.000000 0.666258
vt 0.031250 0.764686
vt 1.241822 0.256258
vt 1.156410 0.741752
vt 1.156410 0.256257
vt 1.000000 0.666258
vt 0.970421 0.764685
vt 1.000000 0.764686
vt 0.529579 0.666258
vt 0.529579 0.764685
vt 0.511037 -0.952883
vt 0.509085 -0.961082
vt 0.805643 -1.318545
vt 0.188407 -0.994144
vt 0.188407 -0.911623
vt 0.188407 0.538113
vt 0.188407 0.455593
vt 0.511037 0.496853
vt 0.509085 0.488654
vt 0.805643 1.589535
vt 1.532663 0.862515
vt 0.000000 0.764686
vt 1.241822 0.741752
vt 0.970421 0.666258
vt 0.409415 -0.994908
vt 0.078623 -1.318545
vt 0.429240 -0.911667
vt 0.409415 -0.910859
vt 0.429240 -0.994100
vt 0.448304 -0.914058
vt 0.448304 -0.991709
vt 0.465873 -0.987825
vt 0.465873 -0.917942
vt 0.481273 -0.923168
vt 0.481273 -0.982599
vt 0.493911 -0.976231
vt 0.493911 -0.929536
vt 0.503302 -0.936801
vt 0.503302 -0.968966
vt 0.509085 -0.944685
vt 0.409415 0.454829
vt 0.429240 0.455636
vt 0.429240 0.538070
vt 0.409415 0.538877
vt 0.448304 0.535678
vt 0.448304 0.458027
vt 0.465873 0.461911
vt 0.465873 0.531795
vt 0.481273 0.526568
vt 0.481273 0.467137
vt 0.493911 0.473505
vt 0.493911 0.520200
vt 0.503302 0.512935
vt 0.503302 0.480771
vt 0.509085 0.505051
vn 0.0000 0.0000 -1.0000
vn 0.0000 0.0000 1.0000
vn 0.0000 -1.0000 0.0000
vn 0.0000 1.0000 0.0000
vn 0.0000 -0.0882 -0.9961
vn 0.0000 -0.2632 -0.9647
vn 0.0000 -0.4333 -0.9013
vn 0.0000 -0.5939 -0.8046
vn 0.0000 -0.7387 -0.6740
vn 0.0000 -0.8596 -0.5109
vn 0.0000 -0.9476 -0.3196
vn 0.0000 -0.9941 -0.1089
vn 0.0000 -0.9941 0.1089
vn 0.0000 -0.9476 0.3196
vn 0.0000 -0.8596 0.5109
vn 0.0000 -0.7387 0.6740
vn 0.0000 -0.5939 0.8046
vn 0.0000 -0.4333 0.9013
vn 0.0000 -0.2632 0.9647
vn 0.0000 -0.0882 0.9961
vn 0.0000 0.0075 1.0000
vn 0.0000 0.0075 -1.0000
vn -1.0000 0.0000 0.0000
vn 1.0000 0.0000 0.0000
usemtl Material.005
s off
f 4/1/1 7/2/1 3/3/1
f 6/4/2 1/5/2 5/6/2
f 7/2/3 1/7/3 3/8/3
f 4/9/4 6/4/4 8/10/4
f 10/11/5 12/12/5 9/13/5
f 11/14/6 14/15/6 12/12/6
f 13/16/7 16/17/7 14/15/7
f 15/18/8 18/19/8 16/17/8
f 17/20/9 20/21/9 18/19/9
f 19/22/10 22/23/10 20/21/10
f 21/24/11 24/25/11 22/23/11
f 23/26/12 26/27/12 24/25/12
f 25/28/13 28/29/13 26/27/13
f 27/30/14 30/31/14 28/29/14
f 31/32/15 30/31/15 29/33/15
f 33/34/16 32/35/16 31/32/16
f 33/34/17 36/36/17 34/37/17
f 37/38/18 36/36/18 35/39/18
f 39/40/19 38/41/19 37/38/19
f 41/42/20 40/43/20 39/40/20
f 44/44/4 46/45/4 43/46/4
f 41/47/21 43/48/21 42/49/21
f 45/50/22 9/13/22 46/51/22
f 25/52/23 23/53/23 2/54/23
f 3/3/23 45/55/23 44/56/23
f 46/57/24 7/2/24 43/58/24
f 26/59/24 28/60/24 8/10/24
f 4/1/1 8/10/1 7/2/1
f 6/4/2 2/61/2 1/5/2
f 7/2/3 5/6/3 1/7/3
f 4/9/4 2/62/4 6/4/4
f 10/11/5 11/14/5 12/12/5
f 11/14/6 13/16/6 14/15/6
f 13/16/7 15/18/7 16/17/7
f 15/18/8 17/20/8 18/19/8
f 17/20/9 19/22/9 20/21/9
f 19/22/10 21/24/10 22/23/10
f 21/24/11 23/26/11 24/25/11
f 23/26/12 25/28/12 26/27/12
f 25/28/13 27/30/13 28/29/13
f 27/30/14 29/33/14 30/31/14
f 31/32/15 32/35/15 30/31/15
f 33/34/16 34/37/16 32/35/16
f 33/34/17 35/39/17 36/36/17
f 37/38/18 38/41/18 36/36/18
f 39/40/19 40/43/19 38/41/19
f 41/42/20 42/63/20 40/43/20
f 44/44/4 45/64/4 46/45/4
f 41/47/21 44/65/21 43/48/21
f 45/50/22 10/11/22 9/13/22
f 10/66/23 45/55/23 1/67/23
f 4/1/23 3/3/23 39/68/23
f 3/3/23 44/56/23 41/69/23
f 3/3/23 41/69/23 39/68/23
f 10/66/23 1/67/23 11/70/23
f 1/67/23 2/54/23 11/70/23
f 4/1/23 39/68/23 37/71/23
f 13/72/23 11/70/23 2/54/23
f 15/73/23 13/72/23 2/54/23
f 4/1/23 37/71/23 35/74/23
f 4/1/23 35/74/23 33/75/23
f 17/76/23 15/73/23 2/54/23
f 19/77/23 17/76/23 2/54/23
f 4/1/23 33/75/23 31/78/23
f 4/1/23 31/78/23 29/79/23
f 21/80/23 19/77/23 2/54/23
f 23/53/23 21/80/23 2/54/23
f 2/54/23 4/1/23 25/52/23
f 4/1/23 29/79/23 27/81/23
f 4/1/23 27/81/23 25/52/23
f 3/3/23 1/67/23 45/55/23
f 46/57/24 5/6/24 7/2/24
f 43/58/24 7/2/24 42/82/24
f 7/2/24 8/10/24 40/83/24
f 42/82/24 7/2/24 40/83/24
f 6/4/24 5/6/24 12/84/24
f 5/6/24 46/57/24 9/85/24
f 5/6/24 9/85/24 12/84/24
f 6/4/24 12/84/24 14/86/24
f 38/87/24 40/83/24 8/10/24
f 36/88/24 38/87/24 8/10/24
f 6/4/24 14/86/24 16/89/24
f 6/4/24 16/89/24 18/90/24
f 34/91/24 36/88/24 8/10/24
f 32/92/24 34/91/24 8/10/24
f 6/4/24 18/90/24 20/93/24
f 6/4/24 20/93/24 22/94/24
f 30/95/24 32/92/24 8/10/24
f 28/60/24 30/95/24 8/10/24
f 8/10/24 6/4/24 26/59/24
f 6/4/24 22/94/24 24/96/24
f 6/4/24 24/96/24 26/59/24
