# Blender v2.92.0 OBJ File: 'untitled - Copy.blend'
# www.blender.org
mtllib Roof2.mtl
o Roof2
v -29.439600 -0.080677 35.408531
v -29.439600 0.080677 35.408531
v -29.439600 -0.080677 -35.408531
v -29.439600 0.080677 -35.408531
v 29.439600 -0.080677 35.408531
v 29.439600 0.080677 35.408531
v 29.439600 -0.080677 -35.408531
v 29.439600 0.080677 -35.408531
vt 0.996498 -1.994457
vt 0.003502 -1.001461
vt 0.003502 -1.994457
vt 0.996498 -1.001461
vt 0.003502 -0.008464
vt 0.996498 -0.008464
vt 0.003502 0.984532
vt 0.996498 0.984532
vt 0.003502 1.977529
vt -0.989495 0.984532
vt -0.989495 -0.008464
vt 1.989495 -0.008464
vt 0.996498 1.977529
vt 1.989495 0.984532
vn -1.0000 0.0000 0.0000
vn 0.0000 0.0000 -1.0000
vn 1.0000 0.0000 0.0000
vn 0.0000 0.0000 1.0000
vn 0.0000 -1.0000 0.0000
vn 0.0000 1.0000 0.0000
usemtl Material.008
s off
f 2/1/1 3/2/1 1/3/1
f 4/4/2 7/5/2 3/2/2
f 8/6/3 5/7/3 7/5/3
f 6/8/4 1/9/4 5/7/4
f 7/5/5 1/10/5 3/11/5
f 4/12/6 6/8/6 8/6/6
f 2/1/1 4/4/1 3/2/1
f 4/4/2 8/6/2 7/5/2
f 8/6/3 6/8/3 5/7/3
f 6/8/4 2/13/4 1/9/4
f 7/5/5 5/7/5 1/10/5
f 4/12/6 2/14/6 6/8/6
